<svg xmlns="http://www.w3.org/2000/svg" viewBox="-10 -10 820 342" fill="#1F70C1"><path d="M0 0v22.063h155.719V0H0zm177.781 0v22.063h221.907C377.02 0 347 0 347 0H177.781zm265.438 0v22.063h134.25L569.5 0H443.219zm230.5 0l-7.969 22.063h133.031V0H673.719zM0 42.906v22.063h155.719V42.906H0zm177.781.031v22.032h247.657s-2.893-16.98-7.938-22.031H177.781zm265.438 0v22.032h148.969l-7.375-22.031H443.219zm214.562 0l-7.375 22.032h148.375V42.937H657.781zM44.75 85.813v22.093h67.438V85.813H44.75zm177.781 0v22.093h67.438V85.813h-67.438zm133.031 0v22.093H423s4.281-11.669 4.281-22.094h-71.719zm132.406 0v22.093h119.563l-7.969-22.093H487.969zm155.125 0l-7.969 22.093H755.25V85.813H643.094zM44.75 128.75v22.063h67.438V128.75H44.75zm177.781 0v22.063h172.25s14.41-11.32 19-22.063H222.531zm265.438 0v22.063h67.438v-12.281l4.281 12.281h123.531l4.594-12.281v12.281h67.438V128.75h-126.594l-6.719 18.688-6.75-18.688H487.969zM44.75 171.656v22.063h67.438v-22.063H44.75zm177.781 0v22.063h191.25c-4.593-10.707-19-22.063-19-22.063H222.531zm265.438 0v22.063h67.438v-22.063h-67.438zm79.719 0l8.156 22.063h92.625l7.75-22.063h-108.531zm120.125 0v22.063h67.438v-22.063h-67.438zM44.75 214.563v22.062h67.438v-22.063H44.75zm177.781 0v22.062h67.438v-22.063h-67.438zm133.031 0v22.062h71.719s-4.281-11.463-4.281-22.063H355.562zm132.406 0v22.062h67.438v-22.063h-67.438zm95.031 0l7.938 22.062h68.313l7.969-22.063h-84.22zm120.813 0v22.062h67.438v-22.063h-67.438zM1.219 257.469v22.094h155.719v-22.094H1.219zm176.562 0v22.094H417.5s-2.893-16.98-7.938-22.094H177.781zm266.656 0v22.094h110.969v-22.094H444.437zm153.875 0l8.125 22.094h39.594l7.625-22.094h-55.344zm131.5 0v22.094H800v-22.094h-70.188zM1.219 300.406v22.063h155.719v-22.063H1.219zm176.562 0v22.031H347c30.02 0 52.688-22.031 52.688-22.031H177.781zm266.656 0v22.063h110.969v-22.063H444.437zm169.281 0l7.813 22h1.344l7.938-22h-17.094zm74.094 0v22.063H800v-22.063h-112.188z"/></svg>